# xmcd CD database file
#
# Track frame offsets:
#	150
#	21135
#	38796
#	49459
#	63569
#	78936
#	94031
#	113014
#	133696
#	152856
#
# Disc length: 2239 seconds
#
# Revision: 1
# Processed by: cddbd v1.4PL0 Copyright (c) Steve Scherf et al.
# Submitted via: jetAudio 5
#
DISCID=7f08bd0a
DTITLE=Jeff Gayhart - All American Boy
DYEAR=1900
DGENRE=
TTITLE0=The Highway
TTITLE1=Home Sweet Home
TTITLE2=Good Lookin' Feller Down From Tennessee
TTITLE3=Look Before You Leap
TTITLE4=I'm Not Needy
TTITLE5=I Can't Believe...
TTITLE6=I Wanna Know
TTITLE7=Yeah, I'm A Folk Singer
TTITLE8=Paul
TTITLE9=All American Boy
EXTD=
EXTT0=Country
EXTT1=Country
EXTT2=Country
EXTT3=Country
EXTT4=Country
EXTT5=Country
EXTT6=Country
EXTT7=Country
EXTT8=Country
EXTT9=Country
PLAYORDER=
